<svg id="Calque_1" data-name="Calque 1" xmlns="http://www.w3.org/2000/svg" xmlns:xlink="http://www.w3.org/1999/xlink" viewBox="0 0 453.52 102.87"><defs><style>.cls-1{fill:none;}.cls-2{clip-path:url(#clip-path);}.cls-3{fill:#e5231f;}.cls-4,.cls-7{fill:#fff;}.cls-5{clip-path:url(#clip-path-2);}.cls-6{fill:url(#Dégradé_sans_nom_2);}.cls-7{isolation:isolate;font-size:18px;font-family:MavenProBold, Maven Pro;}</style><clipPath id="clip-path"><rect class="cls-1" width="453.52" height="102.87"/></clipPath><clipPath id="clip-path-2"><path class="cls-1" d="M59.23,33.6c.3.2,23.8,13.9,12.1,32.7,0,0,4-16.3-12.1-32.7m-6,2.8h0v2a42.55,42.55,0,0,0,.3,10.1,23.37,23.37,0,0,0,3.9,9.5C45.13,52.5,45.93,40.9,43,30.8c-9.1,15.5-3.2,37.2,11.6,43.5a26.51,26.51,0,0,0,9.2,2.3,13,13,0,0,0,9.4-3.2q4.8-4.2,6.6-13.5c1.8-9.3-1.9-17-8.6-23.4a39,39,0,0,0-19-10.3c.2,3.7.9,7,1,10.2"/></clipPath><linearGradient id="Dégradé_sans_nom_2" x1="-1440.39" y1="1259" x2="-1439.55" y2="1259" gradientTransform="matrix(33.86, -33.86, -33.86, -33.86, 91435.05, -6075.07)" gradientUnits="userSpaceOnUse"><stop offset="0"/><stop offset="0.03"/><stop offset="0.21" stop-color="#360b0d"/><stop offset="0.4" stop-color="#671518"/><stop offset="0.58" stop-color="#8e1d21"/><stop offset="0.75" stop-color="#aa2228"/><stop offset="0.89" stop-color="#bb262c"/><stop offset="1" stop-color="#c1272d"/></linearGradient></defs><title>CTA DARK AFFILIATE</title><g class="cls-2"><rect class="cls-3" width="453.52" height="102.87" rx="16"/></g><path class="cls-4" d="M135.83,51.5V24.8H145c4.1,0,7.3,1.1,9.4,3.4s3.2,5.6,3.2,10-1.1,7.7-3.2,9.9-5.3,3.4-9.4,3.4Zm4.8-4.3H145q4.2,0,6-2.1t1.8-6.9q0-4.8-1.8-6.9t-6-2.1h-4.4Zm20.9-2.2a4.87,4.87,0,0,1,.1-1.2,4.42,4.42,0,0,1,.6-1.6,5.52,5.52,0,0,1,1.4-1.7,6.2,6.2,0,0,1,2.6-1.2,13.31,13.31,0,0,1,4-.5,20.68,20.68,0,0,1,3.5.3c0-2.5-1.4-3.8-4.2-3.8a15,15,0,0,0-5.9,1v-4a18.56,18.56,0,0,1,6.1-1c2.8,0,5,.7,6.5,2.2a8.66,8.66,0,0,1,2.3,6.3v5.4a6.34,6.34,0,0,1-2,4.7c-1.4,1.3-3.5,2-6.3,2s-5.1-.7-6.5-2a6.77,6.77,0,0,1-2.2-4.9Zm9.4-3.2c-3,0-4.5.9-4.5,2.6,0,2.1,1.3,3.2,3.8,3.2h0q3.6,0,3.6-3V42.1a15.87,15.87,0,0,0-2.9-.3Zm12.8,9.7V33.3a6.94,6.94,0,0,1,1.3-.5,20,20,0,0,1,3.5-.9,22.42,22.42,0,0,1,5.2-.6v4.1a18.61,18.61,0,0,0-5.2.7V51.5Zm14.7,0V24h4.8V38.8l6.7-7.3h6.4l-8.7,8.9,9.6,11.1h-6.1l-6.6-7.9-1.3,1.3v6.6Zm34.7,0,10.6-26.7H249l10.6,26.7h-5.2L252,45.1h-11.3l-2.4,6.4Zm9.2-10.8h8l-4-10.5Zm19.7-5V31.5h3.4c0-5.6,2.5-8.3,7.5-8.3a13.55,13.55,0,0,1,2,.2v3.8c-.4,0-.7-.1-1.1-.1a3.32,3.32,0,0,0-2.7.9,5.78,5.78,0,0,0-.8,3.5h4.6v4.1h-4.6V51.5h-4.8V35.7Zm14.3,0V31.5h3.4c0-5.6,2.5-8.3,7.4-8.3a13.55,13.55,0,0,1,2,.2v3.8c-.4,0-.7-.1-1.1-.1a3.32,3.32,0,0,0-2.7.9,5.78,5.78,0,0,0-.8,3.5h4.6v4.1h-4.6V51.5h-4.8V35.7Zm16.4-6.9V24.4h4.9v4.4Zm.1,22.7v-20h4.8v20Zm12.6,0V23.9h4.8V51.5Zm11.3-22.7V24.4h4.9v4.4Zm.1,22.7v-20h4.8v20Zm9.8-6.5a4.87,4.87,0,0,1,.1-1.2,4.42,4.42,0,0,1,.6-1.6,5.52,5.52,0,0,1,1.4-1.7,6.2,6.2,0,0,1,2.6-1.2,13.31,13.31,0,0,1,4-.5,20.68,20.68,0,0,1,3.5.3c0-2.5-1.4-3.8-4.2-3.8a15,15,0,0,0-5.9,1v-4a18.56,18.56,0,0,1,6.1-1c2.8,0,5,.7,6.5,2.2a8.66,8.66,0,0,1,2.3,6.3v5.4a6.34,6.34,0,0,1-2,4.7c-1.4,1.3-3.5,2-6.3,2s-5.1-.7-6.5-2a6.77,6.77,0,0,1-2.2-4.9Zm9.4-3.2c-3,0-4.5.9-4.5,2.6,0,2.1,1.3,3.2,3.8,3.2h0q3.6,0,3.6-3V42.1a15.87,15.87,0,0,0-2.9-.3Zm10.6-6.1V31.5H350V25.6h4.8v5.9h4.7v4.1h-4.8v9.9a2.05,2.05,0,0,0,.5,1.7,3.2,3.2,0,0,0,1.9.5,5.87,5.87,0,0,0,2.3-.4v4a8.15,8.15,0,0,1-3.1.6h-.1a6.09,6.09,0,0,1-4.7-1.8,6.61,6.61,0,0,1-1.7-4.8V35.7Zm16.5,6a13.19,13.19,0,0,1,2.1-7.7c1.4-1.9,3.7-2.9,6.8-2.9a8.25,8.25,0,0,1,6.7,2.8,11.45,11.45,0,0,1,2.3,6.9,17,17,0,0,1-.1,2.5H368a4.6,4.6,0,0,0,1.5,3.5,7.3,7.3,0,0,0,3.5.9,16,16,0,0,0,6.8-1.5v3.9a16.26,16.26,0,0,1-7.5,1.8,21.05,21.05,0,0,1-2.5-.2,8.54,8.54,0,0,1-2.4-.9,7.23,7.23,0,0,1-2.2-1.7,8.93,8.93,0,0,1-1.5-2.9A18,18,0,0,1,363.13,41.7Zm4.8-1.7h8a7.72,7.72,0,0,0-1.2-3.5,3.13,3.13,0,0,0-2.8-1.4,3.33,3.33,0,0,0-2.8,1.2,6.28,6.28,0,0,0-1.2,3.7Z"/><g class="cls-5"><polygon class="cls-6" points="8.53 51.5 58.43 1.6 108.33 51.5 58.43 101.4 8.53 51.5"/></g><text class="cls-7" transform="translate(110.03 81.49)">I</text><text class="cls-7" transform="translate(115.03 81.49)">n</text><text class="cls-7" transform="translate(125.74 81.49)">v</text><text class="cls-7" transform="translate(135.74 81.49)">i</text><text class="cls-7" transform="translate(141.19 81.49)">t</text><text class="cls-7" transform="translate(147.95 81.49)">e </text><text class="cls-7" transform="translate(164.09 81.49)">y</text><text class="cls-7" transform="translate(173.42 81.49)">o</text><text class="cls-7" transform="translate(183.34 81.49)">u</text><text class="cls-7" transform="translate(193.93 81.49)">r </text><text class="cls-7" transform="translate(206.53 81.49)">f</text><text class="cls-7" transform="translate(213.02 81.49)">r</text><text class="cls-7" transform="translate(219.32 81.49)">i</text><text class="cls-7" transform="translate(224.53 81.49)">e</text><text class="cls-7" transform="translate(234.37 81.49)">n</text><text class="cls-7" transform="translate(245.09 81.49)">d</text><text class="cls-7" transform="translate(255.11 81.49)">s </text><text class="cls-7" transform="translate(269.31 81.49)">a</text><text class="cls-7" transform="translate(278.9 81.49)">n</text><text class="cls-7" transform="translate(289.62 81.49)">d </text><text class="cls-7" transform="translate(305.96 81.49)">b</text><text class="cls-7" transform="translate(316 81.49)">e </text><text class="cls-7" transform="translate(332.14 81.49)">r</text><text class="cls-7" transform="translate(338.43 81.49)">e</text><text class="cls-7" transform="translate(348.07 81.49)">w</text><text class="cls-7" transform="translate(362.62 81.49)">a</text><text class="cls-7" transform="translate(372.16 81.49)">r</text><text class="cls-7" transform="translate(378.26 81.49)">d</text><text class="cls-7" transform="translate(388.15 81.49)">e</text><text class="cls-7" transform="translate(397.92 81.49)">d</text></svg>