<svg id="Calque_1" data-name="Calque 1" xmlns="http://www.w3.org/2000/svg" viewBox="0 0 612.06 705.11"><defs><style>.cls-1{fill:#fff;}</style></defs><title>PICTO DISCONNECT</title><path class="cls-1" d="M1118.13,385.25a306.59,306.59,0,0,0-224-194.63,5,5,0,0,0-6,4.89v78.41a5,5,0,0,0,3.61,4.81,221.49,221.49,0,0,1,113.72,78A219.92,219.92,0,1,1,658,353.54a221.05,221.05,0,0,1,119.26-77,5,5,0,0,0,3.8-4.86V193.88a5,5,0,0,0-5.9-4.92,305.85,305.85,0,1,0,342.93,196.29Z" transform="translate(-524.47 -90.93)"/><rect class="cls-1" x="278.03" width="64" height="437.86" rx="32"/></svg>