<svg id="Calque_1" data-name="Calque 1" xmlns="http://www.w3.org/2000/svg" xmlns:xlink="http://www.w3.org/1999/xlink" viewBox="0 0 70.87 52.28"><defs><style>.cls-1{fill:url(#Dégradé_sans_nom_20);}</style><linearGradient id="Dégradé_sans_nom_20" x1="375.17" y1="-373.14" x2="424.13" y2="-324.18" gradientTransform="matrix(1, 0, 0, -1, -364.22, -319.49)" gradientUnits="userSpaceOnUse"><stop offset="0.03" stop-color="#838383"/><stop offset="1" stop-color="red"/></linearGradient></defs><title>Picto DARK Discord CS</title><path class="cls-1" d="M47.07,47.76c1.15-.37,2.24-.69,3.31-1.07a28.84,28.84,0,0,0,7.69-3.94,5.3,5.3,0,0,0,.45-.34,1.53,1.53,0,1,0-1.68-2.56l-.19.15a23.29,23.29,0,0,1-4.24,2.53A40.39,40.39,0,0,1,32.72,46a37.43,37.43,0,0,1-15-3.81,20.35,20.35,0,0,1-3.45-2.12A1.55,1.55,0,1,0,12,42.19a1.45,1.45,0,0,0,.39.3,31.24,31.24,0,0,0,10.18,4.9l1.2.36q-1.5,2.05-3,4a1.42,1.42,0,0,1-1.33.46c-6.13-.72-11.85-2.47-16.58-6.65-.23-.2-.43-.42-.64-.63A6.88,6.88,0,0,1,0,39.16,85.87,85.87,0,0,1,6.78,10.81c0-.12.12-.24.16-.37C8.5,6,12.13,3.85,16.24,2.3A39.6,39.6,0,0,1,25.84,0,2,2,0,0,1,28,1.86v.08c0,.45-.37.33-.59.37a46.54,46.54,0,0,0-5.58,1.42,34,34,0,0,0-7.07,3.19,1.59,1.59,0,0,0-.88,1.68A1.42,1.42,0,0,0,15,9.8a1.52,1.52,0,0,0,1.31-.21A38.41,38.41,0,0,1,39.4,4.85,35.9,35.9,0,0,1,54.52,9.51a1.54,1.54,0,1,0,1.93-2.4,1.72,1.72,0,0,0-.37-.22A36.4,36.4,0,0,0,43.9,2.39c-1.22-.24-1.24-.26-.68-1.42a1.52,1.52,0,0,1,1.62-1C50.24.62,55.41,2,60,5A8.58,8.58,0,0,1,62.7,8.06a56.79,56.79,0,0,1,4.68,11.72,79.29,79.29,0,0,1,3.45,21.07,3.13,3.13,0,0,1-.53,1.83A18.54,18.54,0,0,1,62,49.33a34.78,34.78,0,0,1-10,2.78A2.33,2.33,0,0,1,49.47,51C48.78,50,47.9,48.89,47.07,47.76ZM30.78,29a6.41,6.41,0,0,0-1.44-4,4.93,4.93,0,0,0-7.7-.21A6.79,6.79,0,0,0,21.15,33,5,5,0,0,0,28,34.55a5.4,5.4,0,0,0,1-.87A6.61,6.61,0,0,0,30.78,29Zm9.25.08A6.59,6.59,0,0,0,40.61,32,5.25,5.25,0,0,0,45,35.29a4.93,4.93,0,0,0,4.7-2.48,6.74,6.74,0,0,0-.56-8,4.88,4.88,0,0,0-6.86-.66l0,0a6.36,6.36,0,0,0-2.23,4.93Z" transform="translate(0.04 0.04)"/></svg>