<svg id="Calque_1" data-name="Calque 1" xmlns="http://www.w3.org/2000/svg" xmlns:xlink="http://www.w3.org/1999/xlink" viewBox="0 0 460.14 447.96"><defs><style>.cls-1{fill:url(#Dégradé_sans_nom_7);}</style><linearGradient id="Dégradé_sans_nom_7" x1="837.71" y1="-291.31" x2="1162.8" y2="33.78" gradientTransform="matrix(1, 0, 0, -1, -770.3, 101)" gradientUnits="userSpaceOnUse"><stop offset="0.03" stop-color="#838383"/><stop offset="1" stop-color="red"/></linearGradient></defs><title>Picto DARK Github</title><path class="cls-1" d="M177,398.33v30.13a20.12,20.12,0,0,1-7.26,15.72c-4.21,3.69-9.07,4.82-14.48,2.9q-81.6-29-125.24-103.8a217.36,217.36,0,0,1-27.6-80.22c-8.3-60.5,4.74-116.06,39.91-166,26-37,60.38-63.73,102.32-80.67A223.84,223.84,0,0,1,203.38,1.57a228.7,228.7,0,0,1,51.38-.16Q330.33,9.82,386.3,61.29c34.53,31.88,57.14,70.88,67.89,116.66A229.8,229.8,0,0,1,349.91,425.89a244.39,244.39,0,0,1-44.31,21c-8.38,3-14.87-1.08-18.35-5.9a21,21,0,0,1-4.15-12.7V358.73a79.59,79.59,0,0,0-1.67-18.28,25,25,0,0,0-2.8-7.22c-.62-1-.45-1.33.74-1.55a200.11,200.11,0,0,0,28.9-7.39c17.79-6.1,34.21-14.66,48.18-27.47,18.15-16.63,28.87-37.21,31.83-61.63,2.9-23.88.13-47.06-9.87-69.14a96.49,96.49,0,0,0-17.44-26,1.91,1.91,0,0,1-.33-2.67l0,0c2.74-5,4-10.44,4.8-16,1.78-12.18,1.28-24.23-2.66-36a51.65,51.65,0,0,0-6.57-13.06,2.83,2.83,0,0,0-2.72-1.42c-18.64.46-35.49,6.27-50.8,16.76a87.08,87.08,0,0,0-14.92,12.71,1.69,1.69,0,0,1-2.12.53c-12.74-4.44-26-6.33-39.34-7.29a219.44,219.44,0,0,0-35.89.3c-12.35,1.14-24.54,3.17-36.25,7.45a1.67,1.67,0,0,1-2.11-.49,94.67,94.67,0,0,0-50.88-28.4,82.51,82.51,0,0,0-15.11-1.57A2.31,2.31,0,0,0,103.92,72a53.85,53.85,0,0,0-9.35,24,74.22,74.22,0,0,0,2.74,34.76,26.85,26.85,0,0,0,3.55,7.47c.76,1,.63,1.61-.22,2.49a103.11,103.11,0,0,0-20,29.83c-8,18.11-10.76,37.14-9.68,56.8a101.07,101.07,0,0,0,12.62,44.5c8.84,15.81,21.38,28.06,36.61,37.65,16.1,10.12,33.7,16.46,52.19,20.52,2.94.64,5.88,1.22,8.84,1.78.91.17,1,.47.6,1.27-3.11,6-4,12.53-4.52,19.14a80.76,80.76,0,0,0-.31,8.66c0,1.77-.64,2.41-2.2,2.93a61.48,61.48,0,0,1-20.2,2.91c-11-.14-21.4-2.43-30.94-8.06a49,49,0,0,1-16.73-16.47c-7-11.1-16.55-18.73-29.43-21.9a24.54,24.54,0,0,0-12.59-.18,10.88,10.88,0,0,0-2.45,1,2.9,2.9,0,0,0-1.5,3.82,3.72,3.72,0,0,0,.21.39,9.51,9.51,0,0,0,1.72,2.45,21.62,21.62,0,0,0,4,3.52c10.54,6.85,17,17,22.39,27.92,2.51,5.12,4.36,10.55,7.86,15.19,10.6,14.06,24.7,22.29,41.89,25.4,12.36,2.23,24.67,1.31,36.9-1.17Z" transform="translate(0.04 -0.04)"/></svg>