<svg id="Calque_1" data-name="Calque 1" xmlns="http://www.w3.org/2000/svg" xmlns:xlink="http://www.w3.org/1999/xlink" viewBox="0 0 1029.5 838.33"><defs><style>.cls-1{fill:url(#Dégradé_sans_nom_8);}</style><linearGradient id="Dégradé_sans_nom_8" x1="914.58" y1="-320.33" x2="1779.21" y2="544.3" gradientTransform="matrix(1, 0, 0, -1, -905.82, 432.42)" gradientUnits="userSpaceOnUse"><stop offset="0.03" stop-color="#838383"/><stop offset="1" stop-color="red"/></linearGradient></defs><title>Picto DARK Twitter CS</title><path class="cls-1" d="M0,743.69c115,11.38,218.78-17.24,310.85-87.51-58.09-2.91-107.76-24.43-148.17-66.27-22.29-23.07-38.24-50.09-48.3-81.18A215.24,215.24,0,0,0,209.24,505C102.77,482.42,38.18,388.15,40.18,295a214.06,214.06,0,0,0,95.36,26.27c-45.81-32.29-75.86-74.53-88.19-128.53S43.18,87.55,70.24,38.78c5,5.81,9.63,11.32,14.38,16.73A601,601,0,0,0,243.87,184.42a594.74,594.74,0,0,0,180.65,65.66,601.53,601.53,0,0,0,78.68,9.61c3.1.17,3.27-.73,2.75-3.34-12.4-62.45-.62-119.89,37.32-171.11,31.12-42,72.71-69.2,124-80.06,64.88-13.75,124,.11,176.72,40.38A175.5,175.5,0,0,1,865.08,64.7a4.6,4.6,0,0,0,5,1.6,423.63,423.63,0,0,0,126.77-48l3.57-2a4.36,4.36,0,0,1,1.08-.07c-16.34,49.21-45.7,87.91-89.82,115.44,13.56-1,26.81-3.5,40-6.4a404.94,404.94,0,0,0,39.15-10.8c13-4.24,25.6-9.28,38.67-14-4.66,6.44-9.21,13-14,19.31a424.9,424.9,0,0,1-88.07,86.88,6.06,6.06,0,0,0-2.75,5.89,573.8,573.8,0,0,1-5.22,104.21A633.06,633.06,0,0,1,791,617C741.9,679.39,682.7,729.91,612.86,767.8A571.41,571.41,0,0,1,453.5,825.42a644.14,644.14,0,0,1-159.17,12.2A598.65,598.65,0,0,1,2,745.42C1.27,744.92.29,744.71,0,743.69Z" transform="translate(0 -0.03)"/></svg>