<svg id="Calque_1" data-name="Calque 1" xmlns="http://www.w3.org/2000/svg" xmlns:xlink="http://www.w3.org/1999/xlink" viewBox="0 0 1032.38 868.81"><defs><style>.cls-1{fill:url(#Dégradé_sans_nom_7);}</style><linearGradient id="Dégradé_sans_nom_7" x1="1196.72" y1="-286.12" x2="1913.05" y2="430.21" gradientTransform="matrix(1, 0, 0, -1, -885.24, 452.86)" gradientUnits="userSpaceOnUse"><stop offset="0.03" stop-color="#838383"/><stop offset="1" stop-color="red"/></linearGradient></defs><title>Picto DARK Telegram CS</title><path class="cls-1" d="M549.64,681.28l-63,60.86c-16.23,15.69-32.18,31.67-48.76,47-12.27,11.32-26,20.55-42.78,24.16a39,39,0,0,1-4.56.63c-1.16.1-2.33,0-4.11,0,.44-6.52.8-12.76,1.29-19q7.14-91.78,14.33-183.55c1-12.44,1.83-24.89,3.08-37.31a10.37,10.37,0,0,1,3.3-5.85q72.42-66.39,145-132.59L842.76,171.21a52.48,52.48,0,0,0,8.41-9.57c2.73-4.15,1.05-8-3.72-9.65A25,25,0,0,0,828,153.41a154.73,154.73,0,0,0-14.52,8.6L304.55,482.28c-9.4,5.91-18.88,11.7-28.18,17.77a9.08,9.08,0,0,1-8.55,1.16q-113.3-34.87-226.66-69.54c-8.62-2.64-17.52-4.85-25.56-8.77-16.75-8.14-20-21.48-9.92-37.21,5.84-9.15,14.45-15.17,24.11-19.23q35.15-14.79,70.74-28.52,218.76-84.55,437.6-168.89Q750,87.29,961.92,5.59A85.45,85.45,0,0,1,982.18.35c22.12-2.7,41,10.73,47.53,33.3,4.12,14.19,2.9,28.46-.12,42.63q-26,122.26-52,244.51Q944.92,474.36,912.31,628c-13.13,61.8-26.1,123.63-39.53,185.37a142.06,142.06,0,0,1-9.91,30C852.42,865.54,835,873,811.28,866.6a98.56,98.56,0,0,1-33.45-16.12Q665.74,767,553.44,683.87C552.3,683.09,551.17,682.34,549.64,681.28Z" transform="translate(0.03 -0.01)"/></svg>