<svg id="Calque_1" data-name="Calque 1" xmlns="http://www.w3.org/2000/svg" xmlns:xlink="http://www.w3.org/1999/xlink" viewBox="0 0 317.11 384.66"><defs><style>.cls-1{fill:url(#Dégradé_sans_nom_7);}</style><linearGradient id="Dégradé_sans_nom_7" x1="535.04" y1="613.93" x2="751.57" y2="397.4" gradientUnits="userSpaceOnUse"><stop offset="0.03"/><stop offset="0.21" stop-color="#360b0d"/><stop offset="0.4" stop-color="#671518"/><stop offset="0.58" stop-color="#8e1d21"/><stop offset="0.75" stop-color="#aa2228"/><stop offset="0.89" stop-color="#bb262c"/><stop offset="1" stop-color="#c1272d"/></linearGradient></defs><title>DARK SEED$</title><path class="cls-1" d="M651,365.23S833.26,470.08,743.26,614.3c0,0,30.6-124.6-92.25-249.07m-46.07,21c.12,5.14.1,10.27-.27,15.36-1.89,26.3-2.21,52,2.33,77.35a184.86,184.86,0,0,0,29.66,72.73C542.81,510,548.91,421,526.54,344.36,456.79,462.58,502.21,628.21,615,676.22c26,11.08,49.58,16.78,70.63,17.51,28.49,1,52.31-7.37,71.48-24.16,24.26-21.26,41.06-56,50-103.31,13.43-71-14.53-129.95-65.34-178.49C700,347.82,651,320.68,596.53,309.15c2.66,27.25,7.86,52.51,8.41,77.07" transform="translate(-493.39 -309.15)"/></svg>