<svg id="Calque_1" data-name="Calque 1" xmlns="http://www.w3.org/2000/svg" viewBox="0 0 135.84 135.87"><defs><style>.cls-1{fill:#838383;}</style></defs><title>Picto DARK Farm CS</title><path class="cls-1" d="M122.23,135.87h-109V65.81a3.27,3.27,0,0,0-.87,1.08c-1.62,3-3.26,5.88-4.83,8.85-.38.72-.68.82-1.39.4-1.75-1-3.53-2-5.36-2.92-.94-.46-1-.85-.52-1.75q14-25.48,27.92-51A3.55,3.55,0,0,1,29.75,19Q48.23,9.66,66.73.29a2,2,0,0,1,2.07,0q18.47,9.36,37,18.67a3.69,3.69,0,0,1,1.62,1.65Q121.14,45.83,135,71a3.47,3.47,0,0,0,.84,1.32v.26c-2.17,1.18-4.36,2.34-6.51,3.56-.64.36-1,.34-1.3-.36-.6-1.23-1.31-2.41-2-3.61l-3.53-6.45-.24.07Zm-8.39-47.3V51.36a5.2,5.2,0,0,0-.68-2.64l-12-21.89A3.4,3.4,0,0,0,99.6,25.3Q84.2,17.54,68.82,9.72a2.14,2.14,0,0,0-2.21,0Q51.24,17.55,35.82,25.3a3.45,3.45,0,0,0-1.56,1.53l-12,22a4.66,4.66,0,0,0-.62,2.39V125.9c0,1.31.36,1.63,1.62,1.6q5.25-.14,10.5,0c1.26,0,1.62-.27,1.61-1.58,0-17.32,0-34.64-.06-52,0-1.27.2-1.7,1.62-1.7q30.82.07,61.66,0c1.39,0,1.64.39,1.63,1.69q0,26,0,52.09c0,1.18.29,1.49,1.46,1.46,3.5-.08,7,0,10.5,0,1.73,0,1.74,0,1.74-1.69ZM50,80.71a4.62,4.62,0,0,0,.37.5c5.56,5.46,11.14,10.89,16.68,16.37.66.65,1,.38,1.46-.11L84.73,81.58c.23-.22.62-.38.56-.87Zm-6.21,40.77a5.25,5.25,0,0,0,.49-.33c5.61-5.48,11.2-11,16.83-16.43.73-.7.28-1-.18-1.43L44.68,87.42c-.23-.23-.4-.59-.89-.59ZM91.72,86.6c-.34.27-.47.36-.59.47Q82.78,95.25,74.4,103.4c-.69.66-.39.95.11,1.44L90.94,120.9c.19.18.33.57.78.35Zm-6.31,40.8a2.91,2.91,0,0,0-.25-.42c-5.6-5.48-11.22-10.94-16.8-16.45-.73-.73-1-.18-1.46.24L50.75,126.55c-.22.22-.64.37-.51.85Z" transform="translate(0.04 0)"/><path class="cls-1" d="M81.75,47.23V59.84c0,1-.22,1.3-1.25,1.3q-12.73-.06-25.48,0c-1,0-1.31-.23-1.3-1.25q.06-12.81,0-25.62c0-.85.23-1.16,1.12-1.16H80.59c1,0,1.17.37,1.16,1.25C81.74,38.65,81.75,42.94,81.75,47.23ZM67.81,52.69h4.65c.56,0,.9-.06.9-.77V42.23c0-.62-.28-.73-.8-.73H63c-.65,0-.83.22-.83.84v9.43c0,.8.31.94,1,.93C64.72,52.66,66.23,52.69,67.81,52.69Z" transform="translate(0.04 0)"/></svg>