<svg id="Calque_1" data-name="Calque 1" xmlns="http://www.w3.org/2000/svg" viewBox="0 0 461.37 666.94"><defs><style>.cls-1{fill:red;}</style></defs><title>PICTO POTION</title><path class="cls-1" d="M582,933c-54,0-108.1.39-162.14-.2-21.47-.24-40.78-7.67-55-24.75-11.18-13.45-14.86-29.25-13.1-46.56s9.82-31.9,18.31-46.48c14.81-25.47,29.39-51.08,44.13-76.58q23.24-40.18,46.59-80.3,8.83-15.24,17.6-30.52A10.69,10.69,0,0,0,480,622q-.09-105.19-.05-210.4c0-5.6,0-5.55-5.73-5.64-3,0-6,.46-8.92-.56-6.55-2.27-9.93-7.91-9-14.91.83-6,6.32-10.78,13.27-10.95,9-.22,18-.1,27-.1H691c4,0,7.87.15,11.26,2.58a13.24,13.24,0,0,1,4.93,14.71c-1.73,5.68-6.21,9.06-12.3,9.22a50.21,50.21,0,0,1-6.94,0c-3-.34-3.93.56-3.92,3.74.12,32.75.06,65.5.06,98.25q0,56.43,0,112.84a15.21,15.21,0,0,0,2.19,8.12C696,645.37,705.47,662,715,678.51q16.76,29,33.48,58c17.87,31,35.93,62,53.48,93.16,8.68,15.42,12.74,32.21,9.81,49.94-3.25,19.63-14,34.25-31.58,43.7a80.68,80.68,0,0,1-38.49,9.62Q661.89,933.06,582,933Zm-.08-26.42h0q78.3,0,156.6,0a65.4,65.4,0,0,0,22.07-3.47C773,898.72,782,890.9,785.18,877.7c2.5-10.28.42-20.14-3.75-29.59-4.75-10.77-11.27-20.57-17.13-30.73q-26.92-46.7-53.78-93.41-25.53-44.26-51.1-88.49a13.46,13.46,0,0,1-1.78-6.93q0-53.13,0-106.25,0-55.72,0-111.46c0-4.82-.07-4.82-4.91-4.82H512.08c-6.88,0-5.74-.43-5.74,5.71q0,107.82,0,215.64a15.82,15.82,0,0,1-1.86,8.28q-19.75,34.07-39.42,68.18Q428,768,390.93,832.16c-5.64,9.77-11.19,19.51-12.69,31-1.41,10.9.69,20.74,8.09,28.95,9.44,10.46,22.07,14.21,35.53,14.28C475.22,906.71,528.58,906.55,581.94,906.55Z" transform="translate(-351.37 -266.15)"/><path class="cls-1" d="M625,329.26a36.2,36.2,0,0,1,36.29-36.69,36.55,36.55,0,0,1,.54,73.1C640.72,365.89,624.64,348.6,625,329.26Z" transform="translate(-351.37 -266.15)"/><path class="cls-1" d="M487.1,266.15c13.14.08,22.85,10,22.76,23.16-.08,12-10.27,21.9-22,22.27a22.9,22.9,0,0,1-23.56-23.11A22.33,22.33,0,0,1,487.1,266.15Z" transform="translate(-351.37 -266.15)"/><path class="cls-1" d="M603.49,892c-31,0-75.43.52-119.84-.26-17.49-.31-34.9,1.17-52.35.52-8.45-.32-16.88-1-24.92-3.52-11.61-3.69-17.67-19.09-12.13-30,12.84-25.18,26.63-49.83,40.85-74.24,14.45-24.8,29-49.54,43.29-74.44,4.18-7.3,8.1-14.75,12.34-22a4.25,4.25,0,0,1,4.31-2.49c19.67.08,39.34,0,59,.07,2.32,0,3.28-.46,3.79-3,3.07-15.78,13.37-25.29,29-27.16,15.87-1.9,32,10.46,34.08,26.36.41,3.15,1.57,3.93,4.58,3.9,14.35-.15,28.7-.05,43-.1,1.84,0,3.09.27,4.18,2.15,14.52,25.16,29.19,50.24,43.78,75.37,8.8,15.14,17.48,30.34,25.82,45.75,5.53,10.22,12.16,19.86,18.06,29.89A107.42,107.42,0,0,1,771,863.83c3.12,11-4.66,20.91-12.19,24.68a23.31,23.31,0,0,1-10,2.26C704.86,892,660.9,892.35,603.49,892Zm-57-65.6c-.17-23-19.54-42.2-42.38-41.91-23,.29-42.06,19.6-41.89,42.52.17,23.18,19.47,42.39,42.64,42A42.18,42.18,0,0,0,546.52,826.38Zm142.19-12c-13.67-.07-25.44,11.4-25.28,25a25.29,25.29,0,0,0,25.29,25.38c13.51.19,25.15-11.72,25.18-25.28S702.45,814.42,688.71,814.35ZM589.46,685.78v0c-9.48,0-19,.06-28.42,0-2.58,0-3.43.78-3.21,3.41,1.68,20.07,20.95,34,40.13,28.58,12.47-3.49,22.74-16,22.94-28.82,0-2.4-.55-3.2-3-3.16C608.4,685.86,598.93,685.78,589.46,685.78ZM600,784a15.8,15.8,0,0,0,15.62,16c8.57.15,16.17-7.29,16.27-15.93.09-8.24-7.65-16.4-15.83-16.1C606.12,768.33,599.66,776.07,600,784Z" transform="translate(-351.37 -266.15)"/><path class="cls-1" d="M582.63,497c-16.89.82-33.55-14.19-32.76-34.35.63-16.25,14.77-32,33.74-31.34,18,.6,32.16,14.84,31.93,33C615.31,483.16,601.2,497.15,582.63,497Z" transform="translate(-351.37 -266.15)"/><path class="cls-1" d="M549.56,601.82a23.73,23.73,0,1,1,.58-47.45c13.11.12,23.38,10.8,23.28,24.23A23.43,23.43,0,0,1,549.56,601.82Z" transform="translate(-351.37 -266.15)"/></svg>