<svg id="Calque_1" data-name="Calque 1" xmlns="http://www.w3.org/2000/svg" viewBox="0 0 87.11 91.15"><defs><style>.cls-1{fill:#fff;}</style></defs><title>Picto DARK Marketplace</title><path class="cls-1" d="M43.54,91.14H7.74c-2.49,0-3.7-1.2-3.7-3.69V41.56a2,2,0,0,0-.78-1.76A8.42,8.42,0,0,1,0,32.8c.07-3,0-6.06,0-9.1a4.12,4.12,0,0,1,.7-2.41Q7.07,11.51,13.4,1.73A3.52,3.52,0,0,1,16.6,0H70.51A3.49,3.49,0,0,1,73.7,1.75Q80,11.47,86.3,21.14a4.68,4.68,0,0,1,.79,2.69c0,3-.06,5.94,0,8.91a8.46,8.46,0,0,1-3.28,7.07A1.94,1.94,0,0,0,83,41.48V87.27c0,2.71-1.13,3.85-3.83,3.85ZM10.13,63.77V84c0,.87.18,1.17,1.12,1.16q8-.08,16,0c1,0,1.12-.31,1.12-1.17V52.39c0-2.45,1.33-3.8,3.76-3.8H55c2.61,0,3.81,1.2,3.81,3.81V84c0,.8.16,1.07,1,1.07,5.4,0,10.81,0,16.22,0,.72,0,1-.12,1-1V43.37c0-.68-.16-.89-.87-.88a12,12,0,0,1-7.67-2.42c-.53-.41-.84-.22-1.28.09a12.84,12.84,0,0,1-14.82,0,1,1,0,0,0-1.36,0,12.81,12.81,0,0,1-14.89,0,.91.91,0,0,0-1.28,0,12.76,12.76,0,0,1-15,0,.85.85,0,0,0-1.2,0,12,12,0,0,1-7.58,2.4c-.81,0-1,.24-1,1C10.14,50.26,10.13,57,10.13,63.77Zm24.32,6V84.1c0,.8.24,1,1,1,1.41-.06,2.83,0,4.25,0,.62,0,.87-.15.87-.82V55.42c0-.64-.25-.77-.82-.75-1.38,0-2.77.06-4.15,0-.86,0-1.17.15-1.15,1.1,0,4.67,0,9.35,0,14Zm12.13,0V84.1c0,.72.18,1,.94,1,1.48,0,3,0,4.44,0,.57,0,.73-.18.73-.73v-29c0-.55-.14-.75-.72-.73-1.45,0-2.9,0-4.35,0-.8,0-1.06.18-1,1,0,4.8,0,9.52,0,14.23ZM28,20.25h4c.59,0,.8-.17.89-.73.7-4.26,1.4-8.51,2.13-12.76.11-.63-.09-.73-.64-.72H29.43a.74.74,0,0,0-.82.52q-2.52,6.54-5.07,13.07c-.2.51-.06.62.44.61Zm31.1,0h4c.58,0,.66-.15.45-.68q-2.53-6.48-5-13a.73.73,0,0,0-.8-.56H52.6c-.43,0-.58.13-.5.59.73,4.31,1.46,8.63,2.16,13,.09.53.33.68.85.67C56.45,20.22,57.77,20.25,59.09,20.25Zm-15.54,0h3.76c.78,0,.93-.19.8-.93-.65-3.66-1.23-7.34-1.86-11C45.86,6,45.84,6,43.51,6s-2.24,0-2.62,2.17c-.64,3.7-1.24,7.4-1.87,11.1-.1.57-.18,1,.68.94C41,20.19,42.27,20.25,43.55,20.25Zm-16.19,6.1H23.12c-.65,0-.86.18-.85.83V33a2.65,2.65,0,0,0,1.18,2.26,6.91,6.91,0,0,0,7.78,0,2.6,2.6,0,0,0,1.19-2.15v-6c0-.55-.17-.75-.73-.73C30.26,26.37,28.81,26.35,27.36,26.35Zm32.38,0H55.5c-.68,0-.84.23-.83.85,0,1.88,0,3.75,0,5.63A2.8,2.8,0,0,0,56,35.33a6.94,6.94,0,0,0,7.62,0,2.58,2.58,0,0,0,1.25-2.13V27.08c0-.57-.22-.72-.75-.71Zm-16.13,0H39.37c-.68,0-.92.18-.9.88v5.63a2.77,2.77,0,0,0,1.23,2.43,6.92,6.92,0,0,0,7.7,0,2.63,2.63,0,0,0,1.24-2.23V27.13c0-.6-.19-.8-.79-.78C46.44,26.37,45,26.35,43.61,26.35Zm-32.42,0H7.05c-.7,0-1,.12-1,.91.06,1.9,0,3.81,0,5.72a2.61,2.61,0,0,0,1,2.15,6.86,6.86,0,0,0,8.17,0,2.53,2.53,0,0,0,1-2.05V27.15c0-.63-.23-.78-.8-.76C14,26.37,12.61,26.35,11.19,26.35Zm64.75,0H71.79c-.77,0-.93.24-.92,1q.07,2.76,0,5.52a2.81,2.81,0,0,0,1.29,2.51,7,7,0,0,0,7.71-.08A2.62,2.62,0,0,0,81,33V27.15c0-.67-.24-.83-.86-.81-1.36,0-2.78,0-4.14,0ZM8.82,20.25h7.56c.4,0,.5-.25.6-.52q2.54-6.52,5.07-13c.19-.49.1-.65-.42-.64H18.76a1.45,1.45,0,0,0-1.43.76c-2.7,4.21-5.44,8.39-8.15,12.59a.88.88,0,0,0-.36.81Zm69.48,0V20L69.57,6.47a.86.86,0,0,0-.82-.42H65.49c-.54,0-.59.18-.41.65,1.7,4.34,3.38,8.7,5.06,13,.11.28.22.52.61.51Z" transform="translate(0.02 0.01)"/></svg>