<svg id="Calque_1" data-name="Calque 1" xmlns="http://www.w3.org/2000/svg" viewBox="0 0 230.23 277.58"><defs><style>.cls-1{fill:red;}</style></defs><title>PICTO DARK SEED$ DAPP</title><path class="cls-1" d="M140.36,277.58q-1.65,0-3.33-.06c-15.33-.53-32.27-4.7-50.35-12.39C51.14,250,22.85,217.32,9.07,175.43-6.81,127.16-1.48,73.21,23.34,31.14L35.66,10.23l6.8,23.3c3.37,11.56,5.79,23.49,8.14,35,5.72,28.21,10.9,53.76,28,73.19a132.85,132.85,0,0,1-3.42-14.66c-3.49-19.45-2.73-38.87-1.67-53.61.18-2.58.23-5.4.15-9.14h0c-.21-9.43-1.55-19.23-3-29.61-.91-6.59-1.84-13.4-2.53-20.47L66.73,0l14,3c37.37,7.9,71.34,26.26,101,54.56,39.49,37.72,55,80.56,46.18,127.33-6.37,33.62-18.61,58.55-36.41,74.12C177.39,271.33,160.2,277.58,140.36,277.58ZM29.18,68.64A159.76,159.76,0,0,0,29,168.87C40.91,205,64.92,233.05,94.9,245.81c15.7,6.68,30.11,10.29,42.85,10.73,16,.56,29-3.82,39.89-13.36,14.18-12.4,24.14-33.34,29.6-62.22,3.87-20.44,2.15-40.18-5.11-58.66-6.77-17.23-18.52-33.91-34.93-49.59C144.33,50.86,118.69,35.6,90.81,27.2c.22,1.57.43,3.13.64,4.68,1.5,11,2.93,21.36,3.17,32l-10.68.24,10.7-.22c.09,4.42,0,7.85-.21,11.1-1,13.52-1.68,31.25,1.41,48.45a110.61,110.61,0,0,0,17.89,43.91l21,30.61-33.92-15.07c-24-10.65-41.13-26.65-52.48-48.91C38.55,114.81,34.21,93.42,30,72.74Z" transform="translate(-0.06 0)"/></svg>